<svg width="36" height="36" viewBox="0 0 36 36" fill="none" xmlns="http://www.w3.org/2000/svg">
  <path d="M18 26C22.4183 26 26 22.4183 26 18C26 13.5817 22.4183 10 18 10C13.5817 10 10 13.5817 10 18C10 22.4183 13.5817 26 18 26Z" stroke="#C4C2FF" stroke-width="2" stroke-linecap="round" stroke-linejoin="round"/>
  <path d="M27.4313 7.3496C27.8602 7.74469 28.2666 8.15106 28.6504 8.56873L33.2729 9.22908C34.0261 10.5371 34.6066 11.9372 35 13.3944L32.1892 17.1365C32.1892 17.1365 32.24 18.2879 32.1892 18.8635L35 22.6056C34.6084 24.0634 34.0278 25.4637 33.2729 26.7709L28.6504 27.4313C28.6504 27.4313 27.8546 28.261 27.4313 28.6504L26.7709 33.2729C25.4629 34.0261 24.0628 34.6066 22.6056 35L18.8635 32.1892C18.289 32.2401 17.711 32.2401 17.1365 32.1892L13.3944 35C11.9366 34.6084 10.5363 34.0278 9.22908 33.2729L8.56873 28.6504C8.15106 28.2553 7.74469 27.8489 7.3496 27.4313L2.72709 26.7709C1.97391 25.4629 1.39338 24.0628 1 22.6056L3.81076 18.8635C3.81076 18.8635 3.75996 17.7122 3.81076 17.1365L1 13.3944C1.39156 11.9366 1.97219 10.5363 2.72709 9.22908L7.3496 8.56873C7.74469 8.15106 8.15106 7.74469 8.56873 7.3496L9.22908 2.72709C10.5371 1.97391 11.9372 1.39338 13.3944 1L17.1365 3.81076C17.711 3.75995 18.289 3.75995 18.8635 3.81076L22.6056 1C24.0634 1.39156 25.4637 1.97219 26.7709 2.72709L27.4313 7.3496Z" stroke="#C4C2FF" stroke-width="2" stroke-linecap="round" stroke-linejoin="round"/>
</svg>
