<svg width="56" height="53" viewBox="0 0 46 43" fill="none" xmlns="http://www.w3.org/2000/svg">
  <path
    d="M17.9994 3.24857C17.9994 3.24857 1.05603 32.0781 0.337569 34.7656C-0.38089 37.4531 0.0980684 38.4914 1.2955 40.2016C2.09404 41.2191 3.09162 41.6675 3.98968 42.0951C4.88774 42.5227 8.24049 42.8281 11.5932 41.8508C14.946 40.8735 17.1612 39.1022 18.3586 38.1249C19.556 37.1477 20.9929 35.4985 22.6693 33.1775C24.0104 31.3207 25.0641 27.9247 25.4234 26.4588H23.2081L26.8004 18.4574L30.1531 26.4588H27.8182C27.7703 36.9644 24.2858 41.9119 23.9266 42.4616C27.2195 42.4616 34.3441 42.4005 40.391 42.4005C46.857 41.9729 46.3781 36.5979 45.48 34.7656L27.6386 3.24857C27.1813 2.38551 25.5049 0.5 22.8489 0.5C19.9369 0.5 18.5183 2.39346 17.9994 3.24857Z"
    fill="#EE7658"/>
</svg>
