<svg width="87" height="40" viewBox="0 0 87 40" fill="none" xmlns="http://www.w3.org/2000/svg">
  <path d="M53.4749 28.4227C51.4179 30.2477 48.7449 31.2657 45.8649 31.2657C39.2859 31.2657 34.5499 26.5977 34.5499 19.8997C34.5499 13.2017 39.2799 8.73267 45.8649 8.73267C48.7449 8.73267 51.4179 9.54567 53.4749 11.5757L54.9149 12.7917L61.0849 6.70167L59.6449 5.28167C55.7379 2.03367 51.0019 0.00366825 45.8639 0.00366825C34.1419 -0.200332 25.4999 8.12467 25.4999 19.8997C25.4999 31.2657 34.3419 40.0007 45.8649 40.0007C51.2099 40.0007 56.1469 38.1757 60.0599 34.7247L61.4999 33.3027L54.9219 26.8097L53.4749 28.4227Z" fill="#656565"/>
  <path d="M45.5569 26.6677C49.2489 26.6677 52.2429 23.6827 52.2429 20.0007C52.2429 16.3187 49.2489 13.3337 45.5569 13.3337C41.8649 13.3337 38.8699 16.3197 38.8699 20.0007C38.8699 23.6817 41.8639 26.6677 45.5569 26.6677ZM11.3199 4.47567C12.1699 3.12767 12.5389 1.87367 12.5389 1.87367C12.5389 1.87367 11.4219 2.24867 10.0509 3.34167C8.79688 4.47867 7.34588 6.45867 7.44788 9.04967C9.32288 7.54367 10.5609 5.92967 11.3199 4.47567ZM4.16088 19.4427L4.08988 20.5007C4.07688 20.7267 4.22988 20.9267 4.45488 20.9317C4.67088 20.9497 4.86488 20.7667 4.87788 20.5487L4.95088 19.4937C6.49088 18.5637 7.54788 17.2357 8.21188 16.0517C8.54788 15.3957 8.84788 14.8047 9.06388 14.3797C9.23888 13.9297 9.35288 13.6577 9.35288 13.6577C9.35288 13.6577 8.35188 13.7547 7.11988 14.5587C6.24788 15.2237 5.07688 16.4387 4.64288 18.3727C4.63988 18.3727 4.63788 18.3697 4.63388 18.3697C4.64888 16.3747 4.40788 14.7877 3.90988 13.5267C3.45588 12.0367 2.79988 11.1157 2.79988 11.1157L2.52588 12.0617C2.38088 12.6537 2.19188 13.4647 2.24788 14.4137C2.25988 16.1327 2.69088 18.1487 4.16088 19.4427Z" fill="#656565"/>
  <path d="M5.12388 13.9637C5.10555 14.0147 5.09777 14.0689 5.10102 14.123C5.10427 14.1771 5.11849 14.23 5.1428 14.2784C5.16712 14.3269 5.20103 14.3699 5.24247 14.4048C5.28391 14.4397 5.33202 14.4659 5.38388 14.4817C5.58788 14.5467 5.79988 14.4147 5.87788 14.2077L6.20988 13.2337C7.88788 12.7297 8.98188 11.6177 9.93188 10.7067C10.3395 10.2715 10.7014 9.79572 11.0119 9.28667C11.2699 8.91567 11.4389 8.69667 11.4389 8.69667C11.4389 8.69667 10.4009 8.50967 9.20888 9.07967C8.21488 9.51367 6.96488 10.3947 6.14888 12.0467L6.12588 12.0397C6.53788 10.2137 6.55088 8.69867 6.38388 7.44367C6.12388 5.89567 5.76888 4.94067 5.76888 4.94067C5.63188 4.80567 3.12388 9.80867 5.43988 13.0207L5.12388 13.9637ZM7.43188 32.5407C7.72288 32.9637 8.26388 33.7337 8.30588 33.6927C8.46988 33.8627 8.72988 33.8817 8.88388 33.7267C8.95887 33.6516 9.00181 33.5503 9.00368 33.4442C9.00554 33.3381 8.96619 33.2354 8.89388 33.1577C8.85188 33.1877 8.30888 32.4207 8.03488 32.0297C9.44988 27.6037 8.57488 24.0677 8.72988 23.8297C8.72988 23.8297 7.60388 24.4457 6.98988 25.8597C6.33288 27.0937 5.97588 29.3847 7.35288 31.6837C7.34288 31.6907 7.33388 31.6937 7.32588 31.7007C7.31088 31.7107 7.30288 31.7267 7.29188 31.7387C5.68688 29.6037 4.31888 28.0577 3.04188 26.8487C1.53188 25.5237 0.511882 24.8467 0.512882 24.8397C0.429882 24.8067 0.729882 26.8297 1.94288 28.9787C3.05988 30.9427 5.15788 32.6297 7.43188 32.5407Z" fill="#656565"/>
  <path d="M12.3719 37.2117L14.9289 38.8147C15.1229 38.9447 15.3739 38.8447 15.4629 38.6507C15.5569 38.4347 15.4629 38.2107 15.2799 38.0887L12.7579 36.5007C12.6479 34.0547 11.9889 32.0657 11.4279 30.6667C10.9079 29.1127 10.2849 28.1127 10.3279 28.0677C10.3279 28.0677 9.46388 29.0637 9.34988 30.7767C9.10288 32.3877 9.80088 34.7307 12.1189 36.4927C12.1029 36.5097 12.0849 36.5227 12.0709 36.5447C9.65688 35.0007 7.51288 34.1377 5.83988 33.3827C3.90788 32.6677 2.58388 32.3737 2.58388 32.3737C2.58388 32.3737 2.76388 32.8777 3.29388 33.5637C3.83388 34.2247 4.55888 35.1637 5.55888 35.9417C7.48388 37.4167 10.1659 38.2957 12.3719 37.2117ZM4.61088 26.3687L4.99888 27.7927C5.06188 28.0177 5.27488 28.1517 5.47888 28.0697C5.58025 28.0261 5.6627 27.9477 5.7113 27.8487C5.75991 27.7497 5.77146 27.6365 5.74388 27.5297L5.37188 26.1607C6.79088 24.5217 7.69488 22.7477 8.11188 21.3007C8.74488 19.7207 8.75388 18.4447 8.82588 18.4257C8.82588 18.4257 7.68288 18.7257 6.57088 19.9257C5.53888 20.9627 4.47888 22.9197 4.88688 25.5717C4.85888 25.5697 4.83088 25.5637 4.80288 25.5687C4.12688 22.9837 3.32188 21.0127 2.50288 19.5347C1.54488 17.8877 0.629882 16.9487 0.629882 16.9487C0.629882 16.9487 0.517882 17.3967 0.537882 18.1457C0.535004 19.1118 0.609912 20.0766 0.761882 21.0307C1.26988 23.1447 2.37888 25.5467 4.61088 26.3687ZM75.6799 4.47567C74.8299 3.12767 74.4609 1.87367 74.4609 1.87367C74.4609 1.87367 75.5779 2.24867 76.9489 3.34167C78.2029 4.47867 79.6539 6.45867 79.5519 9.04967C77.6769 7.54367 76.4389 5.92967 75.6799 4.47567ZM82.8379 19.4427L82.9109 20.5007C82.9239 20.7267 82.7709 20.9267 82.5459 20.9317C82.3299 20.9497 82.1359 20.7667 82.1229 20.5487L82.0499 19.4937C80.5099 18.5637 79.4529 17.2357 78.7879 16.0517L77.9369 14.3797C77.7619 13.9297 77.6479 13.6577 77.6479 13.6577C77.6479 13.6577 78.6489 13.7547 79.8809 14.5587C80.7519 15.2237 81.9239 16.4387 82.3579 18.3727C82.3609 18.3727 82.3629 18.3697 82.3669 18.3697C82.3519 16.3747 82.5929 14.7877 83.0909 13.5267C83.5449 12.0367 84.2009 11.1157 84.2009 11.1157L84.4749 12.0617C84.6199 12.6537 84.8089 13.4647 84.7529 14.4137C84.7409 16.1327 84.3089 18.1487 82.8379 19.4427Z" fill="#656565"/>
  <path d="M81.8759 13.9637C81.8942 14.0147 81.902 14.0689 81.8988 14.123C81.8955 14.1771 81.8813 14.23 81.857 14.2784C81.8326 14.3269 81.7987 14.3699 81.7573 14.4048C81.7159 14.4397 81.6677 14.4659 81.6159 14.4817C81.4119 14.5467 81.1999 14.4147 81.1219 14.2077L80.7899 13.2337C79.1119 12.7297 78.0179 11.6177 77.0679 10.7067C76.6602 10.2715 76.2983 9.79572 75.9879 9.28667C75.7299 8.91567 75.5609 8.69667 75.5609 8.69667C75.5609 8.69667 76.5989 8.50967 77.7909 9.07967C78.7849 9.51367 80.0349 10.3947 80.8509 12.0467L80.8739 12.0397C80.4619 10.2137 80.4489 8.69867 80.6159 7.44367C80.8759 5.89567 81.2309 4.94067 81.2309 4.94067C81.3679 4.80567 83.8759 9.80867 81.5599 13.0207L81.8759 13.9637ZM79.5679 32.5407C79.2769 32.9637 78.7359 33.7337 78.6939 33.6927C78.5299 33.8627 78.2699 33.8817 78.1159 33.7267C78.0409 33.6516 77.998 33.5503 77.9961 33.4442C77.9942 33.3381 78.0336 33.2354 78.1059 33.1577C78.1479 33.1877 78.6909 32.4207 78.9649 32.0297C77.5499 27.6037 78.4249 24.0677 78.2699 23.8297C78.2699 23.8297 79.3959 24.4457 80.0099 25.8597C80.6659 27.0937 81.0239 29.3847 79.6469 31.6837C79.6569 31.6907 79.6659 31.6937 79.6739 31.7007C79.6889 31.7107 79.6959 31.7267 79.7079 31.7387C81.3129 29.6037 82.6809 28.0577 83.9579 26.8487C85.4679 25.5237 86.4879 24.8467 86.4869 24.8397C86.5699 24.8067 86.2699 26.8297 85.0569 28.9787C83.9399 30.9427 81.8419 32.6297 79.5679 32.5407Z" fill="#656565"/>
  <path d="M74.6279 37.2117L72.0709 38.8147C71.8769 38.9447 71.6259 38.8447 71.5359 38.6507C71.4429 38.4347 71.5379 38.2107 71.7199 38.0887L74.2419 36.5007C74.3519 34.0547 75.0109 32.0657 75.5719 30.6667C76.0919 29.1127 76.7149 28.1127 76.6719 28.0677C76.6719 28.0677 77.5359 29.0637 77.6499 30.7767C77.8969 32.3877 77.1989 34.7307 74.8809 36.4927C74.8969 36.5097 74.9149 36.5227 74.9289 36.5447C77.3429 35.0017 79.4869 34.1377 81.1589 33.3827C83.0909 32.6677 84.4149 32.3737 84.4149 32.3737C84.4149 32.3737 84.2349 32.8777 83.7049 33.5637C83.1649 34.2247 82.4399 35.1637 81.4399 35.9417C79.5139 37.4167 76.8339 38.2957 74.6279 37.2117ZM82.3879 26.3687L82.0009 27.7927C81.9379 28.0177 81.7249 28.1517 81.5209 28.0697C81.4195 28.0261 81.3371 27.9477 81.2885 27.8487C81.2399 27.7497 81.2283 27.6365 81.2559 27.5297L81.6279 26.1607C80.2089 24.5217 79.3049 22.7477 78.8879 21.3007C78.2549 19.7207 78.2449 18.4447 78.1739 18.4257C78.1739 18.4257 79.3169 18.7257 80.4289 19.9257C81.4609 20.9627 82.5209 22.9197 82.1119 25.5717C82.1409 25.5697 82.1689 25.5637 82.1969 25.5687C82.8729 22.9837 83.6779 21.0127 84.4969 19.5347C85.4559 17.8877 86.3699 16.9487 86.3699 16.9487C86.3699 16.9487 86.4819 17.3967 86.4619 18.1457C86.4648 19.1118 86.3899 20.0766 86.2379 21.0307C85.7299 23.1447 84.6199 25.5467 82.3879 26.3687Z" fill="#656565"/>
  <path d="M53.4749 28.4227C51.4179 30.2477 48.7449 31.2657 45.8649 31.2657C39.2859 31.2657 34.5499 26.5977 34.5499 19.8997C34.5499 13.2017 39.2799 8.73267 45.8649 8.73267C48.7449 8.73267 51.4179 9.54567 53.4749 11.5757L54.9149 12.7917L61.0849 6.70167L59.6449 5.28167C55.7379 2.03367 51.0019 0.00366825 45.8639 0.00366825C34.1419 -0.200332 25.4999 8.12467 25.4999 19.8997C25.4999 31.2657 34.3419 40.0007 45.8649 40.0007C51.2099 40.0007 56.1469 38.1757 60.0599 34.7247L61.4999 33.3027L54.9219 26.8097L53.4749 28.4227Z" fill="#656565"/>
</svg>
