<svg
  width="1770"
  height="1614"
  viewBox="0 0 1770 1614"
  fill="none"
  xmlns="http://www.w3.org/2000/svg"
>
  <path
    opacity="0.16"
    d="M692.586 105.624C692.586 105.624 40.6341 1213.5 12.9891 1316.78C-14.656 1420.05 3.7735 1459.96 49.8485 1525.68C80.575 1564.78 118.96 1582.01 153.516 1598.44C188.072 1614.87 317.08 1626.61 446.088 1589.05C575.096 1551.5 660.334 1483.43 706.408 1445.87C752.482 1408.32 807.771 1344.94 872.276 1255.75C923.879 1184.39 964.424 1053.89 978.247 997.558H893.009L1031.23 690.076L1160.24 997.558H1070.4C1068.55 1401.28 934.476 1591.4 920.654 1612.52C1047.36 1612.52 1321.5 1610.18 1554.18 1610.18C1802.98 1593.75 1784.55 1387.19 1749.99 1316.78L1063.48 105.624C1045.89 72.4576 981.383 -5.76753e-05 879.187 0C767.138 0 712.551 72.7631 692.586 105.624Z"
    fill="url(#paint0_linear_187_13)"
  />
  <defs>
    <linearGradient
      id="paint0_linear_187_13"
      x1="378.569"
      y1="135.335"
      x2="1922.89"
      y2="991.832"
      gradientUnits="userSpaceOnUse"
    >
      <stop stop-color="#D5ECFA" />
      <stop offset="0.449544" stop-color="#FFECCC" />
      <stop offset="1" stop-color="#FFA784" />
    </linearGradient>
  </defs>
</svg>
