<svg width="91" height="39" viewBox="0 0 91 39" fill="none" xmlns="http://www.w3.org/2000/svg">
  <path d="M11.3199 3.705C12.1699 2.358 12.5389 1.103 12.5389 1.103C12.5389 1.103 11.4219 1.479 10.0499 2.57C8.79688 3.708 7.34588 5.68901 7.44788 8.28001C9.32288 6.77301 10.5609 5.16 11.3199 3.705ZM4.16088 18.672L4.08888 19.731C4.07588 19.956 4.22888 20.156 4.45388 20.161C4.66988 20.179 4.86388 19.996 4.87688 19.779L4.94988 18.723C6.48988 17.793 7.54688 16.465 8.21088 15.281C8.54688 14.625 8.84688 14.034 9.06288 13.61C9.23788 13.16 9.35188 12.887 9.35188 12.887C9.35188 12.887 8.35088 12.984 7.11888 13.788C6.24688 14.454 5.07588 15.668 4.64188 17.602C4.63888 17.602 4.63688 17.599 4.63288 17.599C4.64788 15.604 4.40688 14.017 3.90888 12.756C3.45488 11.266 2.79888 10.345 2.79888 10.345L2.52488 11.291C2.37988 11.883 2.19088 12.694 2.24688 13.643C2.25888 15.362 2.69088 17.377 4.16088 18.672Z" fill="#656565"/>
  <path d="M5.12388 13.193C5.10555 13.244 5.09777 13.2982 5.10102 13.3523C5.10427 13.4064 5.11849 13.4593 5.1428 13.5078C5.16712 13.5562 5.20103 13.5992 5.24247 13.6341C5.28391 13.6691 5.33202 13.6952 5.38388 13.711C5.58788 13.777 5.79988 13.644 5.87788 13.437L6.20988 12.463C7.88788 11.959 8.98188 10.847 9.93188 9.936C10.3395 9.50089 10.7014 9.02506 11.0119 8.516C11.2699 8.145 11.4389 7.926 11.4389 7.926C11.4389 7.926 10.4009 7.739 9.20888 8.309C8.21488 8.743 6.96488 9.625 6.14888 11.276L6.12588 11.269C6.53788 9.444 6.55088 7.928 6.38388 6.673C6.12388 5.125 5.76888 4.17 5.76888 4.17C5.63188 4.035 3.12388 9.038 5.43988 12.25L5.12388 13.193ZM7.43188 31.77C7.72288 32.193 8.26388 32.963 8.30588 32.923C8.46988 33.093 8.72988 33.111 8.88388 32.956C8.95887 32.8809 9.00181 32.7796 9.00368 32.6735C9.00554 32.5674 8.96619 32.4647 8.89388 32.387C8.85188 32.417 8.30888 31.651 8.03488 31.259C9.44988 26.833 8.57488 23.297 8.72888 23.059C8.72888 23.059 7.60388 23.675 6.98888 25.089C6.33288 26.323 5.97588 28.614 7.35288 30.913C7.34288 30.92 7.33388 30.923 7.32588 30.93C7.31088 30.94 7.30288 30.956 7.29188 30.968C5.68688 28.833 4.31888 27.287 3.04188 26.078C1.53188 24.753 0.511882 24.076 0.512882 24.07C0.429882 24.036 0.729882 26.058 1.94288 28.208C3.05988 30.173 5.15788 31.858 7.43188 31.769V31.77Z" fill="#656565"/>
  <path d="M12.3719 36.441L14.9289 38.044C15.1229 38.174 15.3739 38.074 15.4629 37.881C15.5569 37.664 15.4629 37.44 15.2799 37.318L12.7579 35.73C12.6479 33.284 11.9889 31.296 11.4279 29.896C10.9079 28.342 10.2849 27.343 10.3279 27.297C10.3279 27.297 9.46388 28.293 9.34988 30.006C9.10288 31.617 9.80088 33.96 12.1189 35.722C12.1029 35.739 12.0849 35.753 12.0709 35.774C9.65688 34.231 7.51288 33.367 5.84088 32.612C3.90888 31.897 2.58488 31.604 2.58488 31.604C2.58488 31.604 2.76488 32.107 3.29488 32.794C3.83488 33.454 4.55988 34.394 5.55988 35.172C7.48488 36.647 10.1659 37.524 12.3719 36.441ZM4.61088 25.598L4.99888 27.023C5.06188 27.248 5.27488 27.381 5.47888 27.299C5.58004 27.2555 5.66233 27.1773 5.71092 27.0784C5.75951 26.9796 5.7712 26.8667 5.74388 26.76L5.37188 25.39C6.79088 23.751 7.69488 21.977 8.11188 20.53C8.74488 18.951 8.75388 17.675 8.82588 17.655C8.82588 17.655 7.68288 17.955 6.57088 19.155C5.53888 20.192 4.47888 22.149 4.88688 24.801C4.85888 24.799 4.83088 24.793 4.80288 24.798C4.12688 22.213 3.32188 20.242 2.50288 18.764C1.54488 17.117 0.629882 16.178 0.629882 16.178C0.629882 16.178 0.517882 16.626 0.537882 17.375C0.535004 18.3411 0.609912 19.3059 0.761882 20.26C1.26988 22.374 2.37888 24.776 4.61088 25.598ZM79.6799 3.705C79.1668 2.89194 78.7576 2.0178 78.4619 1.103C78.4619 1.103 79.5789 1.479 80.9499 2.571C82.2039 3.708 83.6549 5.68901 83.5529 8.28001C81.6779 6.77301 80.4409 5.16 79.6819 3.705H79.6799ZM86.8379 18.672L86.9109 19.731C86.9239 19.956 86.7709 20.156 86.5459 20.161C86.3299 20.179 86.1359 19.996 86.1229 19.779L86.0499 18.723C84.5099 17.793 83.4529 16.465 82.7889 15.281C82.4529 14.625 82.1529 14.034 81.9369 13.61C81.7619 13.16 81.6479 12.887 81.6479 12.887C81.6479 12.887 82.6499 12.984 83.8809 13.788C84.7519 14.454 85.9239 15.668 86.3579 17.602C86.3609 17.602 86.3629 17.599 86.3669 17.599C86.3529 15.604 86.5929 14.017 87.0909 12.756C87.5449 11.266 88.2009 10.345 88.2009 10.345L88.4749 11.291C88.6199 11.883 88.8089 12.694 88.7529 13.643C88.7409 15.362 88.3089 17.377 86.8379 18.672Z" fill="#656565"/>
  <path d="M85.8759 13.193C85.8942 13.244 85.902 13.2982 85.8988 13.3523C85.8955 13.4064 85.8813 13.4593 85.857 13.5078C85.8326 13.5562 85.7987 13.5992 85.7573 13.6341C85.7159 13.6691 85.6677 13.6952 85.6159 13.711C85.4119 13.777 85.1999 13.644 85.1219 13.437L84.7899 12.463C83.1119 11.959 82.0179 10.847 81.0679 9.936C80.6602 9.50089 80.2983 9.02506 79.9879 8.516C79.7299 8.145 79.5609 7.926 79.5609 7.926C79.5609 7.926 80.5989 7.739 81.7909 8.309C82.7849 8.743 84.0349 9.625 84.8509 11.276L84.8739 11.269C84.4619 9.444 84.4489 7.928 84.6159 6.673C84.8759 5.125 85.2309 4.17 85.2309 4.17C85.3679 4.035 87.8759 9.038 85.5599 12.25L85.8759 13.193ZM83.5679 31.77C83.2769 32.193 82.7359 32.963 82.6939 32.923C82.5299 33.093 82.2699 33.111 82.1159 32.956C82.0409 32.8809 81.998 32.7796 81.9961 32.6735C81.9942 32.5674 82.0336 32.4647 82.1059 32.387C82.1479 32.417 82.6909 31.651 82.9649 31.259C81.5499 26.833 82.4249 23.297 82.2699 23.059C82.2699 23.059 83.3959 23.675 84.0099 25.089C84.6659 26.323 85.0239 28.614 83.6469 30.913C83.6569 30.92 83.6659 30.923 83.6739 30.93C83.6889 30.94 83.6959 30.956 83.7079 30.968C85.3129 28.833 86.6809 27.287 87.9579 26.078C89.4679 24.753 90.4879 24.076 90.4869 24.07C90.5699 24.036 90.2699 26.058 89.0569 28.208C87.9399 30.173 85.8419 31.858 83.5679 31.769V31.77Z" fill="#656565"/>
  <path d="M78.6279 36.441L76.0709 38.044C75.8769 38.174 75.6259 38.074 75.5369 37.881C75.4429 37.664 75.5369 37.44 75.7199 37.318L78.2419 35.73C78.3519 33.284 79.0109 31.296 79.5719 29.896C80.0919 28.342 80.7149 27.343 80.6719 27.297C80.6719 27.297 81.5359 28.293 81.6499 30.006C81.8969 31.617 81.1989 33.96 78.8809 35.722C78.8969 35.739 78.9149 35.753 78.9289 35.774C81.3429 34.231 83.4869 33.367 85.1589 32.612C87.0909 31.897 88.4149 31.604 88.4149 31.604C88.4149 31.604 88.2349 32.107 87.7049 32.794C87.1649 33.454 86.4399 34.394 85.4399 35.172C83.5149 36.647 80.8339 37.524 78.6279 36.441ZM86.3879 25.598L86.0009 27.023C85.9379 27.248 85.7249 27.381 85.5209 27.299C85.4197 27.2555 85.3374 27.1773 85.2888 27.0784C85.2403 26.9796 85.2286 26.8667 85.2559 26.76L85.6279 25.39C84.2089 23.751 83.3049 21.977 82.8879 20.53C82.2549 18.951 82.2459 17.675 82.1739 17.655C82.1739 17.655 83.3169 17.955 84.4289 19.155C85.4609 20.192 86.5209 22.149 86.1119 24.801C86.1409 24.799 86.1689 24.793 86.1969 24.798C86.8729 22.213 87.6779 20.242 88.4969 18.764C89.4559 17.117 90.3699 16.178 90.3699 16.178C90.3699 16.178 90.4819 16.626 90.4619 17.375C90.4648 18.3411 90.3899 19.3059 90.2379 20.26C89.7299 22.374 88.6199 24.776 86.3879 25.598Z" fill="#656565"/>
  <path d="M53.9223 8.025C55.7473 10.082 56.7653 12.755 56.7653 15.635C56.7653 22.214 52.0973 26.95 45.3993 26.95C38.7013 26.95 34.2323 22.22 34.2323 15.635C34.2323 12.755 35.0453 10.082 37.0753 8.025L38.2913 6.585L32.2013 0.415002L30.7813 1.855C27.5333 5.762 25.5033 10.498 25.5033 15.636C25.2993 27.358 33.6243 36 45.3993 36C56.7653 36 65.5003 27.158 65.5003 15.635C65.5003 10.29 63.6753 5.353 60.2243 1.44L58.8023 0L52.3093 6.578L53.9223 8.025Z" fill="#656565"/>
  <path d="M45.5203 22.61C49.2123 22.61 52.2063 19.625 52.2063 15.943C52.2063 12.261 49.2123 9.276 45.5203 9.276C41.8283 9.276 38.8333 12.262 38.8333 15.943C38.8333 19.624 41.8273 22.61 45.5203 22.61Z" fill="#656565"/>
</svg>
