<svg xmlns="http://www.w3.org/2000/svg" width="56" height="33" viewBox="0 0 56 33" fill="none">
  <path
    d="M47.9069 18.7188L53.4948 15.9362C53.7107 15.8285 53.9029 15.6786 54.0601 15.4955C54.2173 15.3124 54.3363 15.0998 54.4101 14.87C54.4838 14.6402 54.5109 14.398 54.4897 14.1577C54.4685 13.9173 54.3995 13.6836 54.2866 13.4703L48.7213 2.81486C48.5041 2.39611 48.13 2.08024 47.6808 1.93615C47.2316 1.79206 46.7436 1.83143 46.3233 2.04568L40.6676 4.87355M47.9069 18.7188L40.6676 4.87355M47.9069 18.7188L44.2872 22.9719M40.6676 4.87355H31.46C31.225 4.87273 30.9922 4.91826 30.7748 5.00755C30.5574 5.09683 30.3597 5.22811 30.1931 5.39388L21.3249 14.2395C21.1439 14.4253 21.0043 14.6476 20.9156 14.8914C20.8269 15.1353 20.7909 15.3952 20.8102 15.654C20.8294 15.9128 20.9034 16.1645 21.0273 16.3926C21.1511 16.6206 21.322 16.8198 21.5285 16.9768L22.7502 17.9044C24.0048 18.8407 25.5283 19.3466 27.0938 19.3466C28.6593 19.3466 30.1828 18.8407 31.4374 17.9044L34.3331 15.7326L44.2872 22.9719M8.09051 18.4926L2.50263 15.6873C2.28748 15.5819 2.09572 15.4342 1.93877 15.2532C1.78182 15.0722 1.66287 14.8614 1.589 14.6335C1.51514 14.4055 1.48786 14.1651 1.50878 13.9264C1.52971 13.6877 1.59842 13.4557 1.71083 13.244L7.27608 2.58863C7.49379 2.17018 7.86626 1.85325 8.31417 1.70536C8.76208 1.55746 9.25004 1.59028 9.67411 1.79683L15.3299 4.6247L8.09051 18.4926ZM8.09051 18.4926L20.4653 28.1526C20.6583 28.3096 20.8816 28.4251 21.1213 28.4919L34.2427 31.7723C34.5463 31.8378 34.8613 31.8289 35.1607 31.7461C35.4602 31.6634 35.7351 31.5093 35.962 31.2972L44.2872 22.9719M15.4656 4.6247L27.0712 1.23125C27.4835 1.113 27.9245 1.14507 28.3154 1.32175L36.143 4.87355"
    stroke="#429488" stroke-width="2.2" stroke-linecap="round" stroke-linejoin="round"/>
</svg>
